<mxfile host="app.diagrams.net" agent="Mozilla/5.0 (Windows NT 10.0; Win64; x64) AppleWebKit/537.36 (KHTML, like Gecko) Chrome/118.0.0.0 Safari/537.36" version="28.0.7">
  <diagram name="第 1 页" id="8ckei0Q4Hv8BSr3qrOCR">
    <mxGraphModel dx="1590" dy="773" grid="1" gridSize="10" guides="1" tooltips="1" connect="1" arrows="1" fold="1" page="1" pageScale="1" pageWidth="827" pageHeight="1169" math="0" shadow="0">
      <root>
        <mxCell id="0" />
        <mxCell id="1" parent="0" />
        <mxCell id="RsHgKUeeDb3eKB96S3_7-47" value="" style="group" vertex="1" connectable="0" parent="1">
          <mxGeometry x="120" y="60" width="528.75" height="1080" as="geometry" />
        </mxCell>
        <mxCell id="RsHgKUeeDb3eKB96S3_7-11" value="异步队列" style="verticalLabelPosition=bottom;verticalAlign=top;html=1;shape=mxgraph.flowchart.parallel_mode;pointerEvents=1;fillColor=#FFFF99;" vertex="1" parent="RsHgKUeeDb3eKB96S3_7-47">
          <mxGeometry x="3.75" y="680" width="102.5" height="50" as="geometry" />
        </mxCell>
        <mxCell id="RsHgKUeeDb3eKB96S3_7-31" style="edgeStyle=orthogonalEdgeStyle;rounded=0;orthogonalLoop=1;jettySize=auto;html=1;entryX=0.5;entryY=0;entryDx=0;entryDy=0;" edge="1" parent="RsHgKUeeDb3eKB96S3_7-47" source="RsHgKUeeDb3eKB96S3_7-12" target="RsHgKUeeDb3eKB96S3_7-14">
          <mxGeometry relative="1" as="geometry" />
        </mxCell>
        <mxCell id="RsHgKUeeDb3eKB96S3_7-12" value="Kafka" style="strokeWidth=2;html=1;shape=mxgraph.flowchart.direct_data;whiteSpace=wrap;fillColor=#E6FFCC;shadow=1;" vertex="1" parent="RsHgKUeeDb3eKB96S3_7-47">
          <mxGeometry x="5" y="790" width="100" height="60" as="geometry" />
        </mxCell>
        <mxCell id="RsHgKUeeDb3eKB96S3_7-14" value="异步处理服务" style="rounded=1;whiteSpace=wrap;html=1;fillColor=#CCFFFF;shadow=1;" vertex="1" parent="RsHgKUeeDb3eKB96S3_7-47">
          <mxGeometry y="900" width="110" height="60" as="geometry" />
        </mxCell>
        <mxCell id="RsHgKUeeDb3eKB96S3_7-15" value="MySQL" style="shape=cylinder3;whiteSpace=wrap;html=1;boundedLbl=1;backgroundOutline=1;size=15;fillColor=#FFFFCC;shadow=1;" vertex="1" parent="RsHgKUeeDb3eKB96S3_7-47">
          <mxGeometry x="25" y="1000" width="60" height="80" as="geometry" />
        </mxCell>
        <mxCell id="RsHgKUeeDb3eKB96S3_7-28" style="edgeStyle=orthogonalEdgeStyle;rounded=0;orthogonalLoop=1;jettySize=auto;html=1;entryX=0.5;entryY=0;entryDx=0;entryDy=0;entryPerimeter=0;" edge="1" parent="RsHgKUeeDb3eKB96S3_7-47" source="RsHgKUeeDb3eKB96S3_7-10" target="RsHgKUeeDb3eKB96S3_7-11">
          <mxGeometry relative="1" as="geometry" />
        </mxCell>
        <mxCell id="RsHgKUeeDb3eKB96S3_7-32" style="edgeStyle=orthogonalEdgeStyle;rounded=0;orthogonalLoop=1;jettySize=auto;html=1;exitX=0.5;exitY=1;exitDx=0;exitDy=0;entryX=0.5;entryY=0;entryDx=0;entryDy=0;entryPerimeter=0;" edge="1" parent="RsHgKUeeDb3eKB96S3_7-47" source="RsHgKUeeDb3eKB96S3_7-14" target="RsHgKUeeDb3eKB96S3_7-15">
          <mxGeometry relative="1" as="geometry" />
        </mxCell>
        <mxCell id="RsHgKUeeDb3eKB96S3_7-26" style="edgeStyle=orthogonalEdgeStyle;rounded=0;orthogonalLoop=1;jettySize=auto;html=1;exitX=0.5;exitY=1;exitDx=0;exitDy=0;" edge="1" parent="RsHgKUeeDb3eKB96S3_7-47" source="RsHgKUeeDb3eKB96S3_7-9" target="RsHgKUeeDb3eKB96S3_7-10">
          <mxGeometry relative="1" as="geometry" />
        </mxCell>
        <mxCell id="RsHgKUeeDb3eKB96S3_7-27" style="edgeStyle=orthogonalEdgeStyle;rounded=0;orthogonalLoop=1;jettySize=auto;html=1;exitX=0.5;exitY=1;exitDx=0;exitDy=0;" edge="1" parent="RsHgKUeeDb3eKB96S3_7-47" source="RsHgKUeeDb3eKB96S3_7-9" target="RsHgKUeeDb3eKB96S3_7-16">
          <mxGeometry relative="1" as="geometry" />
        </mxCell>
        <mxCell id="RsHgKUeeDb3eKB96S3_7-10" value="线程池" style="shape=tape;whiteSpace=wrap;html=1;strokeWidth=2;size=0.19;fillColor=#CCFFE6;shadow=1;" vertex="1" parent="RsHgKUeeDb3eKB96S3_7-47">
          <mxGeometry x="5" y="570" width="100" height="65" as="geometry" />
        </mxCell>
        <mxCell id="RsHgKUeeDb3eKB96S3_7-16" value="对象池" style="shape=tape;whiteSpace=wrap;html=1;strokeWidth=2;size=0.19;fillColor=#CCFFE6;shadow=1;" vertex="1" parent="RsHgKUeeDb3eKB96S3_7-47">
          <mxGeometry x="163.75" y="570" width="100" height="65" as="geometry" />
        </mxCell>
        <mxCell id="RsHgKUeeDb3eKB96S3_7-45" style="edgeStyle=orthogonalEdgeStyle;rounded=0;orthogonalLoop=1;jettySize=auto;html=1;entryX=0.5;entryY=0;entryDx=0;entryDy=0;entryPerimeter=0;" edge="1" parent="RsHgKUeeDb3eKB96S3_7-47" source="RsHgKUeeDb3eKB96S3_7-11" target="RsHgKUeeDb3eKB96S3_7-12">
          <mxGeometry relative="1" as="geometry" />
        </mxCell>
        <mxCell id="RsHgKUeeDb3eKB96S3_7-46" value="" style="group" vertex="1" connectable="0" parent="RsHgKUeeDb3eKB96S3_7-47">
          <mxGeometry x="83.75" width="445" height="510" as="geometry" />
        </mxCell>
        <mxCell id="RsHgKUeeDb3eKB96S3_7-43" style="edgeStyle=orthogonalEdgeStyle;rounded=0;orthogonalLoop=1;jettySize=auto;html=1;entryX=0.5;entryY=0;entryDx=0;entryDy=0;" edge="1" parent="RsHgKUeeDb3eKB96S3_7-46" source="RsHgKUeeDb3eKB96S3_7-7" target="RsHgKUeeDb3eKB96S3_7-9">
          <mxGeometry relative="1" as="geometry" />
        </mxCell>
        <mxCell id="RsHgKUeeDb3eKB96S3_7-7" value="本地缓存" style="verticalLabelPosition=bottom;verticalAlign=top;html=1;shape=mxgraph.basic.cone;fillColor=#FFFFCC;shadow=1;" vertex="1" parent="RsHgKUeeDb3eKB96S3_7-46">
          <mxGeometry x="18.75" y="310" width="72.5" height="80" as="geometry" />
        </mxCell>
        <mxCell id="RsHgKUeeDb3eKB96S3_7-9" value="业务逻辑" style="rounded=1;whiteSpace=wrap;html=1;fillColor=#E5CCFF;shadow=1;" vertex="1" parent="RsHgKUeeDb3eKB96S3_7-46">
          <mxGeometry y="450" width="110" height="60" as="geometry" />
        </mxCell>
        <mxCell id="RsHgKUeeDb3eKB96S3_7-18" value="Redis集群" style="verticalLabelPosition=bottom;verticalAlign=top;html=1;shape=mxgraph.basic.layered_rect;dx=10;outlineConnect=0;whiteSpace=wrap;fillColor=#CCFFFF;shadow=1;" vertex="1" parent="RsHgKUeeDb3eKB96S3_7-46">
          <mxGeometry x="170" y="310" width="100" height="60" as="geometry" />
        </mxCell>
        <mxCell id="RsHgKUeeDb3eKB96S3_7-19" value="用户状态" style="rounded=1;whiteSpace=wrap;html=1;fillColor=#FFE6CC;shadow=1;" vertex="1" parent="RsHgKUeeDb3eKB96S3_7-46">
          <mxGeometry x="165" y="450" width="110" height="60" as="geometry" />
        </mxCell>
        <mxCell id="RsHgKUeeDb3eKB96S3_7-38" value="Session存储" style="text;strokeColor=none;align=center;fillColor=none;html=1;verticalAlign=middle;whiteSpace=wrap;rounded=0;" vertex="1" parent="RsHgKUeeDb3eKB96S3_7-46">
          <mxGeometry x="219" y="410" width="70" height="20" as="geometry" />
        </mxCell>
        <mxCell id="RsHgKUeeDb3eKB96S3_7-24" style="edgeStyle=orthogonalEdgeStyle;rounded=0;orthogonalLoop=1;jettySize=auto;html=1;entryX=0.5;entryY=0;entryDx=0;entryDy=0;entryPerimeter=0;" edge="1" parent="RsHgKUeeDb3eKB96S3_7-46" source="RsHgKUeeDb3eKB96S3_7-2" target="RsHgKUeeDb3eKB96S3_7-7">
          <mxGeometry relative="1" as="geometry" />
        </mxCell>
        <mxCell id="RsHgKUeeDb3eKB96S3_7-33" style="edgeStyle=orthogonalEdgeStyle;rounded=0;orthogonalLoop=1;jettySize=auto;html=1;exitX=0.5;exitY=1;exitDx=0;exitDy=0;" edge="1" parent="RsHgKUeeDb3eKB96S3_7-46" source="RsHgKUeeDb3eKB96S3_7-2" target="RsHgKUeeDb3eKB96S3_7-18">
          <mxGeometry relative="1" as="geometry">
            <Array as="points">
              <mxPoint x="55" y="280" />
              <mxPoint x="220" y="280" />
            </Array>
          </mxGeometry>
        </mxCell>
        <mxCell id="RsHgKUeeDb3eKB96S3_7-34" style="edgeStyle=orthogonalEdgeStyle;rounded=0;orthogonalLoop=1;jettySize=auto;html=1;" edge="1" parent="RsHgKUeeDb3eKB96S3_7-46" source="RsHgKUeeDb3eKB96S3_7-3" target="RsHgKUeeDb3eKB96S3_7-18">
          <mxGeometry relative="1" as="geometry" />
        </mxCell>
        <mxCell id="RsHgKUeeDb3eKB96S3_7-36" style="edgeStyle=orthogonalEdgeStyle;rounded=0;orthogonalLoop=1;jettySize=auto;html=1;" edge="1" parent="RsHgKUeeDb3eKB96S3_7-46" source="RsHgKUeeDb3eKB96S3_7-4" target="RsHgKUeeDb3eKB96S3_7-18">
          <mxGeometry relative="1" as="geometry">
            <Array as="points">
              <mxPoint x="385" y="280" />
              <mxPoint x="220" y="280" />
            </Array>
          </mxGeometry>
        </mxCell>
        <mxCell id="RsHgKUeeDb3eKB96S3_7-2" value="Web服务实例1" style="rounded=1;whiteSpace=wrap;html=1;fillColor=#CCFFE6;shadow=1;" vertex="1" parent="RsHgKUeeDb3eKB96S3_7-46">
          <mxGeometry y="200" width="110" height="60" as="geometry" />
        </mxCell>
        <mxCell id="RsHgKUeeDb3eKB96S3_7-3" value="Web服务实例2" style="rounded=1;whiteSpace=wrap;html=1;fillColor=#CCFFE6;shadow=1;" vertex="1" parent="RsHgKUeeDb3eKB96S3_7-46">
          <mxGeometry x="165" y="200" width="110" height="60" as="geometry" />
        </mxCell>
        <mxCell id="RsHgKUeeDb3eKB96S3_7-4" value="Web服务实例N" style="rounded=1;whiteSpace=wrap;html=1;fillColor=#CCFFE6;shadow=1;" vertex="1" parent="RsHgKUeeDb3eKB96S3_7-46">
          <mxGeometry x="335" y="200" width="110" height="60" as="geometry" />
        </mxCell>
        <mxCell id="RsHgKUeeDb3eKB96S3_7-20" style="edgeStyle=orthogonalEdgeStyle;rounded=0;orthogonalLoop=1;jettySize=auto;html=1;entryX=0.5;entryY=0;entryDx=0;entryDy=0;" edge="1" parent="RsHgKUeeDb3eKB96S3_7-46" source="RsHgKUeeDb3eKB96S3_7-5" target="RsHgKUeeDb3eKB96S3_7-6">
          <mxGeometry relative="1" as="geometry" />
        </mxCell>
        <mxCell id="RsHgKUeeDb3eKB96S3_7-5" value="API网关" style="verticalLabelPosition=middle;verticalAlign=middle;html=1;shape=trapezoid;perimeter=trapezoidPerimeter;whiteSpace=wrap;size=0.23;arcSize=10;flipV=1;labelPosition=center;align=center;fillColor=#CCCCFF;shadow=1;" vertex="1" parent="RsHgKUeeDb3eKB96S3_7-46">
          <mxGeometry x="170" width="100" height="60" as="geometry" />
        </mxCell>
        <mxCell id="RsHgKUeeDb3eKB96S3_7-23" style="edgeStyle=orthogonalEdgeStyle;rounded=0;orthogonalLoop=1;jettySize=auto;html=1;exitX=1;exitY=0.5;exitDx=0;exitDy=0;entryX=0.5;entryY=0;entryDx=0;entryDy=0;" edge="1" parent="RsHgKUeeDb3eKB96S3_7-46" source="RsHgKUeeDb3eKB96S3_7-6" target="RsHgKUeeDb3eKB96S3_7-4">
          <mxGeometry relative="1" as="geometry" />
        </mxCell>
        <mxCell id="RsHgKUeeDb3eKB96S3_7-6" value="负载均衡" style="rhombus;whiteSpace=wrap;html=1;fillColor=#CCE5FF;shadow=1;" vertex="1" parent="RsHgKUeeDb3eKB96S3_7-46">
          <mxGeometry x="180" y="90" width="80" height="80" as="geometry" />
        </mxCell>
        <mxCell id="RsHgKUeeDb3eKB96S3_7-21" style="edgeStyle=orthogonalEdgeStyle;rounded=0;orthogonalLoop=1;jettySize=auto;html=1;exitX=0;exitY=0.5;exitDx=0;exitDy=0;entryX=0.462;entryY=-0.05;entryDx=0;entryDy=0;entryPerimeter=0;" edge="1" parent="RsHgKUeeDb3eKB96S3_7-46" source="RsHgKUeeDb3eKB96S3_7-6" target="RsHgKUeeDb3eKB96S3_7-2">
          <mxGeometry relative="1" as="geometry" />
        </mxCell>
        <mxCell id="RsHgKUeeDb3eKB96S3_7-42" style="edgeStyle=orthogonalEdgeStyle;rounded=0;orthogonalLoop=1;jettySize=auto;html=1;entryX=0.505;entryY=-0.037;entryDx=0;entryDy=0;entryPerimeter=0;" edge="1" parent="RsHgKUeeDb3eKB96S3_7-46" target="RsHgKUeeDb3eKB96S3_7-19">
          <mxGeometry relative="1" as="geometry">
            <mxPoint x="220" y="390" as="sourcePoint" />
          </mxGeometry>
        </mxCell>
        <mxCell id="RsHgKUeeDb3eKB96S3_7-22" style="edgeStyle=orthogonalEdgeStyle;rounded=0;orthogonalLoop=1;jettySize=auto;html=1;exitX=0.5;exitY=1;exitDx=0;exitDy=0;entryX=0.5;entryY=0;entryDx=0;entryDy=0;" edge="1" parent="RsHgKUeeDb3eKB96S3_7-46" source="RsHgKUeeDb3eKB96S3_7-6" target="RsHgKUeeDb3eKB96S3_7-3">
          <mxGeometry relative="1" as="geometry" />
        </mxCell>
      </root>
    </mxGraphModel>
  </diagram>
</mxfile>
